<svg preserveAspectRatio="none" overflow="visible" style="display: block;" width="20" height="16" viewBox="0 0 20 16" fill="none" xmlns="http://www.w3.org/2000/svg">
<g id="Group">
<path id="Vector" fill-rule="evenodd" clip-rule="evenodd" d="M5 2C5 1.46957 5.21071 0.960859 5.58579 0.585787C5.96086 0.210714 6.46957 2.38419e-07 7 2.38419e-07H18C18.5304 2.38419e-07 19.0391 0.210714 19.4142 0.585787C19.7893 0.960859 20 1.46957 20 2V9C20 9.53043 19.7893 10.0391 19.4142 10.4142C19.0391 10.7893 18.5304 11 18 11H16V7C16 6.20435 15.6839 5.44129 15.1213 4.87868C14.5587 4.31607 13.7956 4 13 4H5V2Z" fill="#939393"/>
<path id="Vector_2" fill-rule="evenodd" clip-rule="evenodd" d="M1.19209e-07 7C1.19209e-07 6.46957 0.210714 5.96086 0.585786 5.58579C0.960859 5.21071 1.46957 5 2 5H13C13.5304 5 14.0391 5.21071 14.4142 5.58579C14.7893 5.96086 15 6.46957 15 7V14C15 14.5304 14.7893 15.0391 14.4142 15.4142C14.0391 15.7893 13.5304 16 13 16H2C1.46957 16 0.960859 15.7893 0.585786 15.4142C0.210714 15.0391 1.19209e-07 14.5304 1.19209e-07 14V7ZM7.5 8C6.83696 8 6.20107 8.26339 5.73223 8.73223C5.26339 9.20107 5 9.83696 5 10.5C5 11.163 5.26339 11.7989 5.73223 12.2678C6.20107 12.7366 6.83696 13 7.5 13C8.16304 13 8.79893 12.7366 9.26777 12.2678C9.73661 11.7989 10 11.163 10 10.5C10 9.83696 9.73661 9.20107 9.26777 8.73223C8.79893 8.26339 8.16304 8 7.5 8Z" fill="#939393"/>
<path id="Vector_3" d="M8.5 10.5C8.5 10.7652 8.39464 11.0196 8.20711 11.2071C8.01957 11.3946 7.76522 11.5 7.5 11.5C7.23478 11.5 6.98043 11.3946 6.79289 11.2071C6.60536 11.0196 6.5 10.7652 6.5 10.5C6.5 10.2348 6.60536 9.98043 6.79289 9.79289C6.98043 9.60536 7.23478 9.5 7.5 9.5C7.76522 9.5 8.01957 9.60536 8.20711 9.79289C8.39464 9.98043 8.5 10.2348 8.5 10.5Z" fill="#939393"/>
</g>
</svg>
