<svg preserveAspectRatio="none" overflow="visible" style="display: block;" width="18" height="18" viewBox="0 0 18 18" fill="none" xmlns="http://www.w3.org/2000/svg">
<g id="pepicons-pencil:dots-y">
<path id="Vector" d="M8.1 13.725C8.1 13.4266 8.21853 13.1405 8.42951 12.9295C8.64048 12.7185 8.92663 12.6 9.225 12.6C9.52337 12.6 9.80952 12.7185 10.0205 12.9295C10.2315 13.1405 10.35 13.4266 10.35 13.725C10.35 14.0234 10.2315 14.3095 10.0205 14.5205C9.80952 14.7315 9.52337 14.85 9.225 14.85C8.92663 14.85 8.64048 14.7315 8.42951 14.5205C8.21853 14.3095 8.1 14.0234 8.1 13.725ZM8.1 9.225C8.1 8.92663 8.21853 8.64048 8.42951 8.4295C8.64048 8.21853 8.92663 8.1 9.225 8.1C9.52337 8.1 9.80952 8.21853 10.0205 8.4295C10.2315 8.64048 10.35 8.92663 10.35 9.225C10.35 9.52337 10.2315 9.80952 10.0205 10.0205C9.80952 10.2315 9.52337 10.35 9.225 10.35C8.92663 10.35 8.64048 10.2315 8.42951 10.0205C8.21853 9.80952 8.1 9.52337 8.1 9.225ZM8.1 4.725C8.1 4.42663 8.21853 4.14048 8.42951 3.9295C8.64048 3.71853 8.92663 3.6 9.225 3.6C9.52337 3.6 9.80952 3.71853 10.0205 3.9295C10.2315 4.14048 10.35 4.42663 10.35 4.725C10.35 5.02337 10.2315 5.30952 10.0205 5.52049C9.80952 5.73147 9.52337 5.85 9.225 5.85C8.92663 5.85 8.64048 5.73147 8.42951 5.52049C8.21853 5.30952 8.1 5.02337 8.1 4.725Z" fill="white" fill-opacity="0.4"/>
</g>
</svg>
